<?xml version="1.0" standalone="no"?>
<!DOCTYPE svg PUBLIC "-//W3C//DTD SVG 20010904//EN"
 "http://www.w3.org/TR/2001/REC-SVG-20010904/DTD/svg10.dtd">
<svg version="1.0" xmlns="http://www.w3.org/2000/svg"
 width="338.000000pt" height="338.000000pt" viewBox="0 0 338.000000 338.000000"
 preserveAspectRatio="xMidYMid meet">

<g transform="translate(0.000000,338.000000) scale(0.100000,-0.100000)"
fill="#000000" stroke="none">
<path d="M3280 3318 c-11 -18 -27 -55 -36 -83 -9 -27 -27 -69 -40 -92 -17 -29
-20 -43 -12 -45 9 -3 8 -12 -5 -32 -10 -14 -20 -41 -22 -59 -10 -84 -18 -104
-55 -156 -28 -38 -30 -44 -8 -17 31 38 212 250 229 270 5 5 11 7 14 4 4 -3 -9
-30 -28 -59 -18 -30 -56 -97 -84 -149 -27 -52 -61 -115 -75 -140 -44 -78 -111
-204 -126 -235 -47 -99 -56 -115 -63 -115 -4 0 -6 -6 -6 -12 1 -7 -5 -32 -13
-56 -16 -50 -6 -65 47 -75 29 -6 42 2 135 77 57 46 126 105 153 131 28 26 60
54 73 62 22 15 22 17 22 274 0 195 -3 259 -12 259 -9 0 -9 3 0 12 7 7 12 28
12 47 0 32 -1 33 -17 19 -28 -24 -47 -33 -39 -19 5 7 10 29 12 49 2 20 8 62
13 92 9 56 7 75 -9 65 -5 -3 -11 -1 -15 5 -11 18 -25 11 -45 -22z m75 -670
c-14 -76 -29 -128 -36 -128 -9 0 -6 27 4 36 3 4 9 33 13 65 4 33 11 59 16 59
5 0 7 -14 3 -32z"/>
<path d="M1732 2853 c-7 -12 -12 -44 -12 -72 0 -55 -7 -62 -35 -31 -18 20 -97
70 -111 70 -5 0 12 -20 36 -45 24 -25 41 -45 38 -45 -3 0 -35 13 -70 30 -59
28 -71 30 -178 30 -113 0 -242 -14 -264 -27 -6 -4 31 -13 82 -20 71 -9 106
-20 148 -44 30 -17 54 -32 52 -34 -2 -1 -36 2 -76 8 -50 7 -76 7 -83 0 -12
-12 114 -284 168 -364 16 -24 35 -56 42 -71 8 -16 18 -28 22 -28 13 0 129 174
129 194 0 3 -10 6 -22 7 -20 1 -18 3 9 15 37 16 68 69 105 180 28 85 33 66 24
-91 -3 -60 -6 -118 -6 -127 -1 -10 -5 -18 -9 -18 -5 0 -14 -14 -21 -30 -12
-28 -11 -33 16 -60 20 -21 39 -30 62 -30 41 0 72 16 72 37 0 11 6 8 21 -11 11
-14 38 -35 59 -45 l38 -18 36 111 c55 167 59 207 29 267 -23 46 -111 154 -119
146 -3 -2 7 -30 22 -61 14 -32 23 -60 19 -64 -4 -4 -10 -1 -12 6 -3 7 -30 30
-61 51 -82 56 -109 88 -125 151 -12 51 -14 53 -25 33z m-232 -353 c0 -5 -2
-10 -4 -10 -3 0 -8 5 -11 10 -3 6 -1 10 4 10 6 0 11 -4 11 -10z"/>
<path d="M724 2695 c18 -115 94 -262 156 -298 37 -23 38 -34 2 -42 -55 -12
-160 54 -145 91 3 8 2 14 -1 14 -4 0 -11 -12 -17 -27 l-11 -28 -19 24 c-34 41
-31 16 6 -53 41 -78 122 -182 148 -189 10 -3 17 -15 17 -29 0 -18 -2 -20 -10
-8 -9 13 -10 13 -10 0 1 -19 24 -50 38 -50 15 0 66 -91 55 -99 -5 -3 -12 -14
-16 -24 -9 -24 -37 -33 -48 -16 -5 8 -18 37 -28 64 -11 28 -27 67 -35 87 -16
38 -16 38 -36 18 -27 -27 -108 -27 -185 0 -32 11 -60 20 -62 20 -13 0 40 -68
92 -118 59 -58 140 -102 185 -102 14 0 19 -4 14 -12 -5 -8 10 -10 59 -5 66 6
67 6 67 -18 0 -17 6 -25 18 -25 28 0 42 -21 42 -61 0 -57 -15 -55 -52 6 -23
39 -37 53 -48 48 -8 -3 -34 -8 -57 -11 -24 -2 -43 -7 -43 -11 0 -4 25 -22 55
-41 30 -19 54 -39 55 -44 0 -5 -30 -6 -66 -3 -36 2 -62 2 -59 -1 3 -4 32 -20
63 -37 32 -17 57 -37 56 -45 -1 -8 8 -16 20 -16 12 -1 47 -18 79 -37 32 -19
81 -41 109 -48 l52 -12 -23 -18 c-13 -11 -32 -19 -43 -19 -40 0 -10 -25 45
-39 31 -7 57 -17 57 -22 0 -5 -14 -18 -31 -28 -18 -11 -26 -22 -20 -25 18 -12
108 -19 145 -12 l36 7 -72 67 c-76 72 -201 213 -194 219 8 8 70 -30 89 -53 10
-13 39 -34 65 -47 36 -18 48 -30 50 -50 3 -24 34 -57 53 -57 9 0 -31 83 -44
91 -5 4 -2 11 9 17 16 9 17 12 1 43 -11 24 -13 37 -5 46 15 18 26 16 33 -7 3
-11 15 -20 25 -20 13 0 17 -5 14 -15 -8 -19 45 -33 56 -15 5 7 6 19 3 27 -3 7
2 16 11 19 9 3 13 10 10 15 -14 23 27 5 50 -22 28 -33 31 -33 17 4 -9 24 -8
25 47 32 31 3 68 9 81 12 23 6 23 7 -13 25 l-36 19 27 24 c25 21 29 22 34 7 5
-13 10 -8 22 19 19 47 33 55 41 25 3 -13 11 -24 18 -23 7 0 24 -1 38 -2 22 -1
23 -3 8 -12 -10 -5 -18 -14 -18 -19 0 -14 44 -12 58 2 16 16 16 90 0 106 -9 9
-9 12 3 12 8 0 20 -12 26 -27 9 -24 11 -25 12 -7 2 41 24 46 59 15 l31 -29 7
34 c4 20 4 54 1 77 -4 33 -3 38 5 23 10 -18 6 -154 -7 -208 -6 -21 -3 -27 15
-33 15 -5 25 -2 31 6 8 14 5 131 -7 225 -6 50 -6 51 31 72 44 27 49 27 40 5
-10 -28 10 -2 23 30 12 28 9 32 -30 28 -15 -2 -16 2 -9 22 8 21 7 25 -7 22 -9
-1 -22 1 -27 6 -7 5 -15 -3 -22 -21 -8 -23 -8 -30 0 -31 16 -1 -24 -17 -45
-18 -11 -1 -15 5 -11 17 3 15 -3 18 -44 20 -109 6 -145 3 -197 -13 -30 -10
-69 -15 -85 -13 -30 4 -31 3 -96 -128 -36 -73 -65 -138 -65 -144 0 -22 -17 -8
-39 31 -23 41 -71 167 -116 304 -34 105 -56 244 -62 393 -3 72 -6 132 -7 132
-1 0 -37 -14 -81 -31 -159 -61 -260 -49 -362 44 l-56 52 7 -50z m537 -642 c49
-42 54 -54 13 -30 -26 15 -82 65 -109 97 l-20 24 33 -24 c18 -14 55 -44 83
-67z m-80 24 c26 -41 20 -104 -11 -129 -21 -17 -51 -26 -37 -11 4 3 -1 12 -11
19 -16 13 -16 13 1 14 10 0 17 3 15 8 -24 48 -32 62 -40 62 -4 0 -8 16 -8 35
0 64 51 65 91 2z m589 13 c20 -12 9 -21 -18 -13 -12 3 -19 9 -16 14 7 11 15
11 34 -1z m-26 -39 c3 -5 -1 -12 -10 -15 -8 -3 -12 -10 -9 -16 4 -6 -8 -10
-29 -10 -39 0 -46 15 -18 36 20 15 58 18 66 5z m-199 -101 c3 -5 -3 -10 -14
-10 -12 0 -21 5 -21 10 0 6 6 10 14 10 8 0 18 -4 21 -10z m45 -86 c0 -14 -38
-54 -52 -54 -12 0 -28 36 -28 63 0 24 1 25 40 15 22 -6 40 -16 40 -24z m190 6
c0 -5 -4 -10 -10 -10 -5 0 -10 5 -10 10 0 6 5 10 10 10 6 0 10 -4 10 -10z
m-380 -184 c0 -3 -4 -8 -10 -11 -5 -3 -10 -1 -10 4 0 6 5 11 10 11 6 0 10 -2
10 -4z"/>
<path d="M2914 2618 l-19 -23 23 19 c21 18 27 26 19 26 -2 0 -12 -10 -23 -22z"/>
<path d="M2874 2568 l-19 -23 23 19 c21 18 27 26 19 26 -2 0 -12 -10 -23 -22z"/>
<path d="M2839 2523 c-13 -16 -12 -17 4 -4 9 7 17 15 17 17 0 8 -8 3 -21 -13z"/>
<path d="M2056 2402 c-14 -55 -16 -76 -7 -85 6 -6 11 -25 11 -42 0 -18 9 -42
20 -55 11 -13 20 -27 20 -32 0 -4 4 -8 8 -8 10 0 2 73 -9 80 -4 3 -12 53 -16
110 l-8 105 -19 -73z"/>
<path d="M2774 2438 l-19 -23 23 19 c12 11 22 21 22 23 0 8 -8 2 -26 -19z"/>
<path d="M3315 2386 c-33 -39 -89 -106 -123 -150 -35 -45 -73 -91 -85 -102
-12 -12 -101 -103 -197 -203 -116 -120 -182 -181 -196 -181 -11 0 -33 -13 -49
-30 -15 -16 -32 -27 -36 -24 -5 2 -15 -8 -23 -23 -8 -15 -37 -62 -66 -103
-118 -173 -118 -173 -128 -241 -12 -81 -60 -184 -106 -229 -33 -31 -38 -32
-90 -28 -40 3 -63 11 -81 28 -30 29 -65 101 -65 137 0 16 -5 35 -11 43 -8 11
-9 -10 -5 -73 3 -56 11 -97 20 -110 33 -47 44 -57 74 -68 23 -8 31 -18 36 -44
4 -18 2 -44 -3 -56 -5 -13 -17 -53 -26 -89 -36 -136 -58 -192 -92 -237 -35
-46 -32 -47 25 -6 17 13 32 30 32 37 0 8 9 35 21 61 12 26 23 62 26 79 6 35
14 47 20 29 3 -7 18 -13 34 -13 19 0 27 4 23 13 -2 7 2 32 11 56 21 61 18 72
-7 31 -12 -19 -28 -39 -35 -43 -8 -5 -11 -12 -8 -18 4 -5 -1 -9 -9 -9 -22 0
-20 34 3 102 24 70 60 126 101 158 42 32 72 63 86 85 9 16 18 2 62 -87 88
-182 186 -242 331 -204 37 10 68 13 73 8 11 -11 -32 -162 -74 -257 -16 -38
-57 -121 -90 -183 -50 -94 -62 -111 -74 -101 -23 19 -116 4 -188 -31 -36 -17
-68 -30 -70 -28 -2 2 -16 -8 -30 -21 -41 -39 -41 -18 0 41 21 29 29 46 19 38
-17 -14 -18 -13 -11 5 5 11 9 27 10 35 0 8 9 24 19 34 18 21 24 66 8 66 -5 0
-19 -14 -32 -31 -13 -17 -36 -46 -51 -64 -16 -18 -28 -38 -28 -44 0 -6 -9 -16
-19 -23 -15 -9 -17 -15 -9 -25 16 -20 -7 -17 -87 12 -38 13 -83 24 -100 24
-23 -1 -19 -3 20 -13 70 -17 80 -24 62 -44 -8 -10 -20 -28 -27 -41 l-12 -24
33 26 c49 37 77 41 129 18 l45 -19 74 24 c40 14 77 22 82 17 5 -5 -9 -35 -31
-68 -42 -64 -54 -99 -24 -74 9 7 34 39 55 71 22 32 44 58 50 58 5 0 -8 -24
-31 -53 -22 -30 -40 -61 -40 -70 0 -39 33 -11 92 78 35 52 69 95 76 95 17 0
19 3 -57 -123 -55 -91 -66 -105 -82 -97 -18 10 -49 4 -49 -10 0 -4 12 -5 26
-2 25 5 26 3 22 -36 l-3 -41 281 -1 281 -1 11 26 c7 14 12 32 12 40 0 23 24
18 48 -10 12 -14 27 -25 33 -25 5 0 8 -3 6 -8 -5 -7 -1 -8 96 -18 53 -5 57 -4
57 15 0 17 -4 20 -29 15 -16 -4 -32 -1 -35 5 -4 7 1 11 13 11 30 0 24 30 -9
43 -10 3 -3 8 17 12 19 4 35 15 39 27 3 11 19 32 34 47 27 25 28 29 15 54 -18
35 -4 42 29 16 l26 -20 0 255 0 256 -36 0 c-20 0 -48 8 -62 19 -15 10 -58 36
-97 56 -90 49 -125 75 -125 94 0 11 6 9 23 -7 13 -12 29 -22 36 -22 8 0 29 -9
47 -21 19 -11 39 -17 45 -13 7 4 9 3 5 -4 -8 -14 38 -45 90 -60 77 -22 76 -24
71 86 -5 120 -32 216 -64 231 -13 6 -23 15 -23 21 0 6 -5 8 -10 5 -6 -3 -28 4
-50 16 -39 22 -40 22 -55 3 -14 -18 -14 -18 -15 11 0 23 -11 40 -52 75 -28 25
-60 51 -71 59 -18 13 -19 11 -14 -23 3 -20 1 -39 -4 -42 -5 -3 -9 8 -9 23 0
16 -12 53 -27 83 l-28 55 -63 -3 c-72 -3 -132 20 -216 84 l-48 38 6 -90 c6
-80 4 -91 -14 -113 -26 -31 -35 -22 -15 15 10 19 15 57 15 109 0 92 20 184 44
197 9 5 16 16 16 23 0 8 4 15 10 15 15 0 50 33 50 48 0 7 4 11 9 8 4 -3 49 14
98 39 49 24 113 48 142 53 48 9 53 8 66 -12 7 -11 17 -34 21 -49 4 -17 11 -26
20 -23 7 3 18 -2 25 -10 8 -10 14 -11 19 -4 12 19 34 -19 33 -56 -1 -19 1 -34
3 -34 3 0 27 11 55 25 53 27 69 49 50 68 -6 6 -11 24 -11 39 0 15 -4 28 -10
28 -5 0 -19 19 -31 43 -12 23 -39 63 -61 90 -21 26 -35 47 -29 47 6 0 35 -16
65 -35 30 -19 59 -35 63 -35 4 0 32 56 61 123 l53 122 -3 160 -3 160 -60 -69z
m-417 -1073 c7 -7 20 -13 28 -13 12 0 10 -7 -8 -32 -14 -20 -23 -47 -23 -71
l0 -39 -47 4 c-27 2 -43 -1 -38 -6 10 -10 85 -10 102 0 8 5 9 2 5 -9 -4 -10 0
-20 10 -26 9 -5 18 -22 19 -39 2 -26 -3 -32 -37 -47 -44 -20 -177 -17 -203 4
-41 34 -68 136 -46 171 8 12 10 9 10 -14 0 -24 3 -28 23 -22 12 3 38 6 57 6
31 1 33 2 18 14 -23 17 -23 26 1 26 11 0 23 5 26 10 11 17 35 12 28 -6 -5 -14
-2 -16 23 -10 26 7 43 21 44 37 0 4 -17 9 -39 13 -45 7 -56 19 -64 67 l-5 37
51 -22 c29 -11 58 -27 65 -33z m-198 13 c0 -3 -4 -8 -10 -11 -5 -3 -10 -1 -10
4 0 6 5 11 10 11 6 0 10 -2 10 -4z m-110 -10 c0 -2 -8 -10 -17 -17 -16 -13
-17 -12 -4 4 13 16 21 21 21 13z m174 -5 c3 -5 -8 -11 -24 -13 -20 -3 -30 0
-30 9 0 14 46 18 54 4z m-192 -151 c2 -22 0 -40 -4 -40 -5 0 -8 18 -8 40 0 22
2 40 4 40 2 0 6 -18 8 -40z m-48 -50 c20 -16 43 -26 69 -27 43 -1 90 -30 95
-56 4 -21 -44 -34 -69 -18 -10 6 -24 11 -30 11 -36 0 -129 105 -129 146 0 16
3 15 17 -6 10 -14 31 -36 47 -50z m628 -81 l-9 -34 64 -20 c51 -16 68 -27 85
-53 l21 -34 -29 5 c-40 6 -136 50 -151 69 -10 11 -10 23 -2 49 6 19 13 40 15
48 9 29 15 2 6 -30z m-133 -61 c46 -36 39 -52 -9 -18 -28 20 -32 20 -52 6 -12
-9 -32 -16 -44 -16 -12 0 -34 -7 -50 -14 -15 -8 -31 -13 -36 -10 -16 10 36 41
89 54 29 6 50 16 47 21 -11 19 14 8 55 -23z m184 -502 c3 -8 0 -22 -7 -31 -11
-15 -13 -15 -25 -1 -11 13 -11 19 -1 31 16 19 26 19 33 1z m-197 -381 c-8 -33
-24 -32 -32 3 -3 15 -10 40 -15 57 l-9 29 31 -32 c24 -25 30 -37 25 -57z m244
55 c0 -5 -4 -10 -10 -10 -5 0 -10 5 -10 10 0 6 5 10 10 10 6 0 10 -4 10 -10z"/>
<path d="M2720 2370 c-17 -22 -29 -40 -27 -40 3 0 20 18 37 40 17 22 29 40 27
40 -3 0 -20 -18 -37 -40z"/>
<path d="M0 2269 c0 -95 3 -131 13 -133 113 -30 142 -43 145 -64 6 -37 -24
-36 -93 2 l-65 36 0 -1055 0 -1055 38 0 38 0 16 93 c28 161 42 197 79 197 11
0 19 -7 19 -17 0 -10 10 -49 22 -86 17 -53 20 -74 12 -95 -6 -16 -7 -40 -2
-60 l9 -32 69 0 69 0 -6 30 c-4 23 -2 30 10 30 27 0 87 -33 87 -47 0 -7 5 -13
10 -13 14 0 13 10 -6 61 -39 107 -36 124 30 149 37 14 50 3 71 -59 13 -40 13
-53 3 -77 -6 -16 -12 -33 -13 -39 0 -5 -4 -16 -8 -23 -7 -9 37 -12 207 -12
119 0 216 3 216 8 0 4 13 22 29 39 l28 31 -30 6 c-17 3 -32 4 -35 1 -3 -3 1
-5 9 -5 11 0 11 -2 -1 -10 -19 -12 -53 -13 -46 -1 3 5 -1 11 -9 15 -8 3 -15
10 -15 16 0 6 -7 18 -15 26 -8 9 -15 11 -15 5 0 -6 -8 -11 -17 -11 -10 0 -27
-7 -38 -16 -19 -14 -19 -15 3 -20 22 -6 21 -24 -2 -24 -16 0 -28 38 -15 46 5
3 7 9 4 14 -8 13 21 31 41 24 14 -4 15 -3 5 4 -10 7 -10 11 -1 17 7 4 17 1 22
-6 8 -11 9 -10 4 3 -3 10 -1 20 4 23 6 4 10 1 10 -4 0 -6 12 -10 28 -10 23 2
24 2 5 6 -32 6 -29 18 13 49 20 16 40 38 45 51 5 13 14 23 20 23 7 0 10 -32 7
-105 -3 -98 -2 -104 17 -107 11 -2 35 9 56 27 19 16 48 40 64 52 16 13 26 23
21 23 -5 0 3 12 18 26 14 15 26 33 26 40 0 8 5 14 10 14 6 0 10 6 10 14 0 7 6
19 13 25 11 9 16 -4 25 -68 6 -43 18 -98 28 -122 19 -53 25 -99 13 -99 -5 0
-9 -4 -9 -10 0 -6 33 -10 80 -10 l79 0 -26 60 c-19 46 -23 64 -15 72 7 7 15 8
19 4 4 -4 1 -11 -6 -15 -8 -6 -9 -11 -3 -15 6 -3 18 -29 27 -56 l17 -50 134 0
c74 0 134 2 134 5 0 3 -9 24 -20 45 -22 44 -70 212 -70 248 0 12 -4 22 -9 22
-12 0 -47 104 -64 189 -17 88 -39 94 -31 9 5 -62 5 -63 -10 -30 -8 17 -17 32
-20 32 -3 0 -6 -24 -5 -52 0 -29 -1 -60 -2 -68 -1 -8 2 -28 5 -45 7 -27 6 -28
-5 -10 -7 11 -16 46 -20 78 -4 32 -17 80 -29 105 -12 26 -30 64 -40 84 -11 23
-14 36 -7 35 6 -1 13 9 14 23 2 14 6 40 9 59 l5 33 29 -27 c15 -15 36 -48 45
-73 21 -57 26 -63 44 -53 14 9 16 37 5 89 -4 19 -2 38 5 46 13 16 43 175 35
187 -3 5 -11 9 -19 9 -13 0 -19 -20 -46 -162 -11 -62 -25 -74 -35 -32 -7 28
-1 109 11 138 6 14 5 17 -3 12 -17 -10 -15 -1 9 45 18 36 22 39 37 27 29 -23
64 -40 70 -34 7 8 -16 31 -31 31 -7 0 -13 19 -15 48 -2 30 1 47 8 47 6 0 8 4
5 10 -8 13 32 90 48 91 6 1 18 1 25 0 6 -1 12 7 12 18 0 18 6 16 52 -19 29
-21 54 -37 57 -35 2 3 11 -1 19 -7 12 -10 19 -7 38 15 25 29 32 53 12 41 -8
-5 -9 2 -4 26 3 18 14 80 23 137 14 86 15 106 4 113 -8 4 -11 12 -7 18 3 6 3
13 -2 16 -4 2 -13 -8 -20 -23 -16 -37 -114 -151 -143 -166 -18 -10 -32 -10
-71 1 -81 25 -176 71 -188 93 -6 11 -24 28 -39 36 -19 9 -32 26 -36 44 -3 16
-13 35 -21 42 -24 19 -26 4 -3 -24 11 -15 18 -27 14 -27 -11 0 25 -59 47 -75
l23 -17 -25 7 c-52 16 -54 15 -15 -4 22 -11 53 -20 70 -20 43 -1 16 -24 -32
-26 -39 -1 -43 -8 -29 -51 6 -20 5 -21 -36 -12 -139 28 -258 40 -433 41 -201
0 -235 -2 -235 -16 0 -5 -21 -7 -47 -3 -27 3 -40 2 -31 -2 23 -10 58 -57 58
-78 0 -9 8 -27 18 -38 9 -11 -16 8 -55 43 -40 35 -73 69 -73 75 0 7 -11 19
-25 26 -14 7 -25 17 -25 22 0 4 -11 8 -25 8 -15 0 -28 7 -32 18 -8 22 -54 85
-70 95 -7 4 -10 14 -6 23 3 8 -5 26 -18 41 -18 20 -20 25 -6 20 20 -7 23 6 5
25 -7 7 -13 29 -13 48 0 19 -3 51 -7 70 -11 50 -4 63 57 104 29 21 66 53 81
73 22 29 25 41 20 76 -10 63 -27 105 -68 176 -45 75 -115 161 -131 161 -7 0
-32 14 -57 30 -25 16 -61 33 -80 36 -19 4 -48 13 -64 21 -15 8 -46 21 -67 28
l-39 14 0 -130z m170 -363 c0 -41 -1 -42 -35 -42 -21 0 -37 6 -40 15 -6 17 12
31 31 24 7 -3 15 8 19 26 9 43 25 29 25 -23z m1686 -604 c-19 -118 -38 -185
-44 -158 -3 15 -6 16 -13 5 -6 -9 -7 -2 -3 19 4 21 3 32 -5 32 -6 0 -11 -9
-11 -20 0 -27 -12 -25 -50 6 -24 20 -28 29 -18 35 7 5 14 13 14 19 1 5 2 16 3
23 0 7 15 28 32 46 16 18 37 44 46 57 20 31 37 31 31 -1 -3 -14 -1 -28 3 -31
5 -3 10 3 11 13 0 10 2 23 3 28 2 6 4 24 5 40 2 26 3 27 7 7 3 -13 -2 -67 -11
-120z m-521 -92 c-11 -4 -68 -15 -125 -23 -137 -20 -250 -46 -250 -58 0 -5 11
-11 24 -15 14 -3 32 -14 42 -25 24 -26 11 -24 -36 7 -21 14 -47 24 -57 22 -10
-2 -33 11 -53 29 -19 18 -38 33 -42 33 -4 0 -8 6 -8 13 0 9 9 12 28 10 15 -2
52 0 82 5 64 12 424 13 395 2z m149 -100 c5 -17 4 -20 -2 -10 -5 8 -13 26 -16
40 -5 17 -4 20 2 10 5 -8 13 -26 16 -40z m-20 -6 c11 -27 7 -37 -9 -24 -16 14
-20 40 -6 40 5 0 12 -7 15 -16z m51 -61 c8 -20 13 -38 11 -40 -5 -6 -36 51
-36 67 0 20 10 10 25 -27z m-424 10 c40 -20 78 -53 61 -53 -26 0 -91 35 -95
52 -6 22 -8 22 34 1z m319 -3 c0 -5 -7 -10 -15 -10 -8 0 -15 5 -15 10 0 6 7
10 15 10 8 0 15 -4 15 -10z m-160 -87 c-10 -21 -14 -40 -9 -41 5 -2 6 -9 2
-15 -11 -18 -14 -47 -4 -47 5 0 12 12 16 27 6 26 8 26 19 10 18 -24 30 -22 69
13 19 17 42 30 51 30 8 0 18 11 22 25 3 14 11 25 16 25 12 0 0 -58 -17 -83 -7
-10 -10 -36 -7 -67 5 -55 -3 -100 -19 -100 -6 0 -7 5 -4 10 3 6 -1 10 -10 10
-9 0 -14 4 -11 9 3 4 -13 5 -37 0 -23 -4 -48 -8 -55 -9 -7 0 -17 -10 -22 -22
l-10 -23 3 22 c1 12 -6 28 -16 35 -18 14 -32 58 -17 58 4 0 11 -6 13 -12 3 -8
6 -6 6 5 1 9 -6 17 -15 17 -11 0 -14 5 -10 16 3 9 6 30 6 47 0 33 33 97 49 97
5 0 1 -17 -9 -37z m-13 -285 c-3 -8 -6 -5 -6 6 -1 11 2 17 5 13 3 -3 4 -12 1
-19z m96 -128 c-2 -2 -8 2 -13 10 -12 18 -13 123 -2 134 7 8 23 -135 15 -144z
m-96 68 c-3 -7 -5 -2 -5 12 0 14 2 19 5 13 2 -7 2 -19 0 -25z m175 -49 c20
-38 25 -104 7 -94 -6 4 -8 13 -5 21 3 7 1 16 -4 19 -4 3 -15 26 -24 51 -18 55
-1 57 26 3z m-175 -16 c-3 -10 -5 -4 -5 12 0 17 2 24 5 18 2 -7 2 -21 0 -30z
m33 -113 c0 -6 -5 -21 -12 -33 -12 -22 -12 -21 -19 8 -4 17 -7 43 -8 59 l-1
29 20 -26 c11 -14 20 -30 20 -37z m146 3 c-7 -7 -26 7 -26 19 0 6 6 6 15 -2 9
-7 13 -15 11 -17z m-1040 -95 c-3 -24 -8 -77 -12 -119 l-6 -76 30 -11 c31 -11
63 -71 39 -73 -12 -1 -105 -1 -119 0 -8 1 -38 66 -38 83 0 5 10 13 23 19 18 8
18 9 2 5 -11 -2 -28 -7 -38 -11 -10 -4 -17 -4 -15 1 3 10 -20 91 -33 117 -7
13 -5 19 8 23 10 3 27 11 38 17 33 19 120 65 124 66 2 1 1 -18 -3 -41z m288
-74 c-18 -15 -18 -15 0 -10 15 5 17 4 8 -7 -7 -8 -8 -17 -4 -22 4 -4 0 -5 -8
-3 -8 3 -14 11 -12 18 2 8 -4 10 -15 6 -11 -4 -7 4 11 19 15 15 31 23 34 20 3
-3 -3 -12 -14 -21z m679 -11 c40 -65 40 -69 -2 -24 -41 44 -50 61 -31 61 5 0
20 -17 33 -37z m67 22 c0 -8 -6 -15 -14 -15 -17 0 -28 14 -19 24 12 12 33 6
33 -9z m-808 -71 c-6 -11 -11 -13 -16 -5 -4 6 -2 11 3 11 6 0 11 8 12 18 0 9
3 12 5 5 3 -7 1 -20 -4 -29z m716 -52 c27 -83 27 -90 3 -68 -10 10 -22 34 -26
54 -3 20 -9 47 -12 60 -3 12 -1 22 4 22 5 0 19 -31 31 -68z m-670 24 c12 -7
12 -10 1 -17 -11 -7 -10 -9 4 -9 10 0 15 -5 12 -11 -4 -6 -13 -8 -21 -5 -17 7
-18 -6 -2 -22 8 -8 8 -12 1 -12 -17 0 -24 29 -13 50 13 25 -5 37 -27 18 -13
-9 -12 -6 2 14 11 14 22 21 24 15 2 -7 11 -16 19 -21z m20 16 c2 -7 -2 -10
-12 -6 -9 3 -16 11 -16 16 0 13 23 5 28 -10z m877 -29 c4 -19 2 -29 -9 -35 -9
-5 -13 -16 -10 -26 4 -12 0 -10 -15 7 -25 28 -26 39 -5 69 18 26 29 22 39 -15z
m-670 -63 c-3 -5 -14 -10 -23 -9 -14 0 -13 2 3 9 27 11 27 11 20 0z m-205 -30
c0 -5 -2 -10 -4 -10 -3 0 -8 5 -11 10 -3 6 -1 10 4 10 6 0 11 -4 11 -10z m36
-48 c-4 -3 -14 2 -24 12 -16 18 -16 18 6 6 13 -6 21 -14 18 -18z m194 12 c0
-12 -6 -15 -22 -10 -13 3 -27 6 -31 6 -5 0 -5 5 -2 10 10 17 55 12 55 -6z
m-70 -19 c0 -11 -29 -11 -33 -1 -4 10 1 12 14 9 10 -3 19 -7 19 -8z"/>
<path d="M2977 2243 c-9 -2 -24 -18 -33 -36 l-16 -31 41 33 c52 41 53 46 8 34z"/>
<path d="M1402 2177 c-17 -20 -42 -96 -42 -126 1 -26 1 -25 35 14 44 51 49 68
32 100 -11 22 -15 24 -25 12z"/>
<path d="M1307 2163 c-6 -6 12 -64 25 -78 6 -6 8 6 7 32 -3 38 -18 61 -32 46z"/>
<path d="M2895 2159 c-11 -17 1 -21 15 -4 8 9 8 15 2 15 -6 0 -14 -5 -17 -11z"/>
<path d="M2114 2128 c3 -13 6 -34 6 -47 0 -15 4 -21 9 -15 11 12 2 84 -11 84
-6 0 -8 -10 -4 -22z"/>
<path d="M2830 2110 c-27 -53 -25 -59 10 -25 17 16 30 37 30 47 0 30 -18 20
-40 -22z"/>
<path d="M2142 2032 c-8 -14 -10 -35 -6 -58 9 -51 26 -27 22 32 -3 46 -4 47
-16 26z"/>
<path d="M2077 1973 c-4 -3 -7 -13 -7 -22 1 -13 3 -13 11 2 11 19 8 33 -4 20z"/>
<path d="M2144 1909 c-6 -8 -19 -50 -29 -94 -11 -48 -35 -113 -61 -162 -24
-46 -40 -83 -35 -83 19 0 136 32 144 39 4 4 1 14 -8 21 -21 18 -19 27 13 44
15 8 21 15 13 16 -10 0 -7 9 11 28 30 32 58 84 58 108 0 15 -3 15 -20 -4 -21
-22 -48 -31 -86 -29 l-21 1 18 55 c20 57 21 83 3 60z"/>
<path d="M2341 1854 c0 -11 3 -14 6 -6 3 7 2 16 -1 19 -3 4 -6 -2 -5 -13z"/>
<path d="M1921 1823 c-1 -6 -4 -20 -7 -30 -5 -17 -5 -17 6 0 6 10 9 23 6 30
-3 9 -5 9 -5 0z"/>
<path d="M3127 1579 c-9 -6 -27 -7 -40 -3 l-22 6 22 -21 c21 -20 23 -20 58 -4
19 9 35 20 35 25 0 11 -31 10 -53 -3z"/>
<path d="M1540 1555 c7 -9 15 -13 17 -11 7 7 -7 26 -19 26 -6 0 -6 -6 2 -15z"/>
<path d="M2330 1534 c8 -8 23 -20 34 -26 14 -6 11 -1 -8 16 -32 29 -45 34 -26
10z"/>
<path d="M1672 1510 c-7 -11 -26 -23 -42 -27 -23 -4 -30 -11 -30 -30 0 -40 18
-63 48 -63 32 0 53 14 76 50 14 24 14 28 -4 58 -23 37 -31 39 -48 12z"/>
<path d="M3025 1490 c-27 -30 -12 -34 15 -5 13 14 19 25 13 25 -5 0 -18 -9
-28 -20z"/>
<path d="M1550 1479 c0 -13 29 -69 35 -69 3 0 5 15 5 34 0 25 -5 35 -20 39
-11 3 -20 1 -20 -4z"/>
<path d="M1038 1413 c7 -3 16 -2 19 1 4 3 -2 6 -13 5 -11 0 -14 -3 -6 -6z"/>
<path d="M1198 1363 c7 -3 16 -2 19 1 4 3 -2 6 -13 5 -11 0 -14 -3 -6 -6z"/>
<path d="M2105 1193 c3 -15 21 -40 38 -56 28 -25 38 -28 77 -24 62 6 78 11 93
26 10 11 7 12 -13 5 -54 -17 -119 5 -165 56 -25 28 -38 25 -30 -7z"/>
<path d="M3357 1070 c8 -31 23 -34 23 -6 0 16 -6 26 -14 26 -9 0 -12 -7 -9
-20z"/>
<path d="M1595 990 c3 -5 8 -10 11 -10 2 0 4 5 4 10 0 6 -5 10 -11 10 -5 0 -7
-4 -4 -10z"/>
<path d="M1620 970 c0 -6 7 -10 15 -10 8 0 15 2 15 4 0 2 -7 6 -15 10 -8 3
-15 1 -15 -4z"/>
<path d="M1764 885 c1 -55 1 -56 19 -34 22 28 22 52 -2 73 -18 16 -19 15 -17
-39z"/>
<path d="M2580 834 c0 -11 5 -14 16 -10 9 3 21 6 27 6 16 0 -14 20 -30 20 -7
0 -13 -7 -13 -16z"/>
<path d="M2790 840 c-14 -4 -41 -8 -60 -9 -33 -1 -35 -3 -35 -33 -1 -18 -4
-53 -9 -77 -7 -39 -6 -43 8 -38 10 4 19 1 23 -9 11 -29 62 39 83 110 10 36 18
66 17 65 -1 -1 -13 -5 -27 -9z"/>
<path d="M2025 775 c3 -16 13 -37 21 -45 24 -24 18 23 -7 51 l-20 24 6 -30z"/>
<path d="M2198 745 c-6 -47 -5 -49 8 -27 6 9 7 28 4 42 -6 22 -7 20 -12 -15z"/>
<path d="M2271 740 c-18 -12 -32 -23 -30 -24 2 -2 35 0 73 5 48 6 74 5 83 -3
11 -8 12 -7 7 5 -6 17 -16 21 -69 31 -21 4 -40 0 -64 -14z"/>
<path d="M2438 754 c-4 -3 -2 -17 4 -29 6 -13 7 -32 4 -42 -7 -16 -9 -16 -19
-3 -7 8 -19 16 -27 16 -8 1 -24 5 -35 10 -14 5 -11 0 9 -17 18 -16 31 -39 35
-65 l7 -39 17 31 c21 41 32 107 20 128 -5 9 -12 14 -15 10z"/>
<path d="M1726 689 c-30 -35 -30 -37 -11 -63 14 -18 15 -18 23 5 11 30 23 89
18 89 -2 0 -16 -14 -30 -31z"/>
<path d="M2160 595 c27 -29 61 -120 53 -141 -3 -8 -11 -14 -19 -14 -8 0 -14
-4 -14 -9 0 -5 -12 -24 -27 -42 l-28 -32 44 6 c47 6 85 29 108 64 14 21 14 22
-19 17 l-33 -6 0 61 c0 56 -3 64 -32 91 -38 36 -66 40 -33 5z m80 -180 c0 -8
-61 -37 -67 -32 -3 3 8 12 24 21 29 16 43 19 43 11z"/>
<path d="M1718 563 c0 -10 0 -26 0 -37 2 -12 -3 -16 -13 -12 -38 14 6 -39 52
-63 32 -16 51 -13 26 4 -14 10 -26 34 -33 70 -11 53 -28 74 -32 38z"/>
<path d="M1959 520 c-13 -10 -19 -19 -13 -20 6 0 19 9 29 20 23 26 14 26 -16
0z"/>
<path d="M1919 444 l-21 -23 34 -6 c19 -4 61 -3 94 2 l59 8 -72 21 -72 21 -22
-23z"/>
<path d="M1750 333 c-14 -3 -29 -9 -34 -14 -13 -12 49 -10 159 6 l90 12 -95 0
c-52 0 -106 -2 -120 -4z"/>
<path d="M3327 169 c-4 -15 -2 -19 10 -15 8 3 16 6 19 6 2 0 1 7 -2 15 -9 21
-21 19 -27 -6z"/>
<path d="M955 160 c-3 -5 -1 -10 4 -10 6 0 11 5 11 10 0 6 -2 10 -4 10 -3 0
-8 -4 -11 -10z"/>
<path d="M1975 102 c-28 -20 -74 -51 -104 -69 -30 -18 -52 -33 -48 -33 6 0 85
34 121 52 21 11 36 -4 36 -34 0 -11 8 -18 19 -18 17 0 20 9 23 68 2 37 3 68 3
69 0 1 -23 -15 -50 -35z"/>
<path d="M3315 120 c-3 -5 -1 -10 4 -10 6 0 11 5 11 10 0 6 -2 10 -4 10 -3 0
-8 -4 -11 -10z"/>
<path d="M3277 104 c-4 -4 -7 -17 -7 -28 1 -19 1 -20 11 -3 11 19 8 43 -4 31z"/>
<path d="M3302 59 c-7 -12 -11 -24 -7 -27 7 -8 25 17 25 36 0 17 -3 15 -18 -9z"/>
<path d="M1041 63 c0 -7 -9 -13 -18 -14 -15 0 -15 -2 2 -9 28 -12 55 -12 55 0
0 5 -6 7 -14 4 -8 -3 -16 2 -19 13 -3 10 -5 12 -6 6z"/>
<path d="M1284 61 c4 -5 0 -12 -6 -14 -7 -3 -2 -6 11 -6 20 -1 21 1 11 14 -14
16 -25 21 -16 6z"/>
<path d="M1126 49 c2 -4 -16 -13 -41 -20 -25 -7 -45 -17 -45 -21 0 -4 46 -8
103 -8 97 1 101 1 74 16 -33 18 -31 23 15 34 25 6 15 8 -39 6 -39 0 -69 -4
-67 -7z m34 -29 c-8 -5 -22 -10 -30 -10 -13 0 -13 1 0 10 8 5 22 10 30 10 13
0 13 -1 0 -10z"/>
<path d="M985 19 c-9 -14 4 -27 13 -13 4 6 14 14 22 17 10 4 8 6 -7 6 -12 1
-25 -4 -28 -10z"/>
<path d="M3340 10 c0 -5 5 -10 10 -10 6 0 10 5 10 10 0 6 -4 10 -10 10 -5 0
-10 -4 -10 -10z"/>
</g>
</svg>
